<svg width="159" height="64" viewBox="0 0 159 64" fill="none" xmlns="http://www.w3.org/2000/svg">
<g clip-path="url(#clip0_1_310)">
<mask id="mask0_1_310" style="mask-type:luminance" maskUnits="userSpaceOnUse" x="-16" y="-25" width="175" height="124">
<path d="M-15.012 -24.1731H158.189V98.5247H-15.012V-24.1731Z" fill="white"/>
</mask>
<g mask="url(#mask0_1_310)">
<path d="M94.3229 25.2873C93.4826 25.2873 92.7787 25.674 92.2077 26.4452C91.6397 27.2171 91.3542 28.3005 91.3542 29.6946C91.3542 31.0918 91.6255 32.1614 92.1693 32.9067C92.7122 33.6544 93.4254 34.0267 94.3101 34.0267C95.1943 34.0267 95.9126 33.6497 96.4643 32.8932C97.016 32.1395 97.2925 31.0605 97.2925 29.6559C97.2925 28.2525 97.0069 27.1721 96.4378 26.4177C95.8693 25.6642 95.1643 25.2873 94.3229 25.2873ZM94.3101 39.157C91.8498 39.157 89.8436 38.3503 88.2929 36.7373C86.7444 35.1229 85.9697 32.7671 85.9697 29.6701C85.9697 26.5714 86.7532 24.2251 88.3201 22.6275C89.8875 21.0319 91.9108 20.2334 94.3892 20.2334C96.8671 20.2334 98.8687 21.0175 100.391 22.5902C101.916 24.1598 102.678 26.5394 102.678 29.7219C102.678 32.9067 101.899 35.2756 100.339 36.8301C98.7798 38.3814 96.7715 39.157 94.3101 39.157Z" fill="#414042"/>
<path d="M110.041 25.4696V33.342C110.041 33.7097 110.068 33.9414 110.12 34.0386C110.173 34.1354 110.331 34.1839 110.593 34.1839C111.557 34.1839 112.287 33.823 112.787 33.1035C113.287 32.3848 113.535 31.1881 113.535 29.5121C113.535 27.8354 113.276 26.743 112.761 26.2355C112.244 25.7265 111.424 25.4696 110.304 25.4696H110.041ZM104.997 37.6839V21.8927C104.997 21.4537 105.106 21.1073 105.326 20.8504C105.545 20.5974 105.829 20.4689 106.18 20.4689H110.567C113.352 20.4689 115.466 21.1725 116.91 22.5765C118.356 23.9799 119.079 26.1898 119.079 29.2084C119.079 35.6661 116.328 38.8943 110.829 38.8943H106.337C105.445 38.8943 104.997 38.4917 104.997 37.6839Z" fill="#414042"/>
<path d="M129.165 25.2873C128.325 25.2873 127.619 25.674 127.049 26.4452C126.481 27.2171 126.197 28.3005 126.197 29.6946C126.197 31.0918 126.469 32.1614 127.011 32.9067C127.553 33.6544 128.267 34.0267 129.152 34.0267C130.036 34.0267 130.755 33.6497 131.306 32.8932C131.858 32.1395 132.134 31.0605 132.134 29.6559C132.134 28.2525 131.849 27.1721 131.28 26.4177C130.711 25.6642 130.007 25.2873 129.165 25.2873ZM129.152 39.157C126.691 39.157 124.686 38.3503 123.137 36.7373C121.586 35.1229 120.811 32.7671 120.811 29.6701C120.811 26.5714 121.595 24.2251 123.161 22.6275C124.73 21.0319 126.752 20.2334 129.231 20.2334C131.71 20.2334 133.71 21.0175 135.234 22.5902C136.758 24.1598 137.52 26.5394 137.52 29.7219C137.52 32.9067 136.74 35.2756 135.181 36.8301C133.622 38.3814 131.612 39.157 129.152 39.157Z" fill="#414042"/>
<path d="M147.311 38.4748C147.311 38.8235 146.445 39.0005 144.71 39.0005C142.977 39.0005 142.109 38.8235 142.109 38.4748V25.2606H138.957C138.659 25.2606 138.448 24.858 138.326 24.0488C138.274 23.6637 138.249 23.2695 138.249 22.8652C138.249 22.4633 138.274 22.0674 138.326 21.6816C138.448 20.8745 138.659 20.4688 138.957 20.4688H150.385C150.682 20.4688 150.892 20.8745 151.016 21.6816C151.067 22.0674 151.094 22.4633 151.094 22.8652C151.094 23.2695 151.067 23.6637 151.016 24.0488C150.892 24.858 150.682 25.2606 150.385 25.2606H147.311V38.4748Z" fill="#414042"/>
<path d="M81.324 29.1216C79.9097 29.0997 78.2911 29.3951 78.2911 29.3951V32.1607H79.9188L79.9006 33.3935C79.9006 33.8502 79.4488 34.0796 78.5475 34.0796C77.6452 34.0796 76.8482 33.6968 76.1569 32.9333C75.4639 32.1689 75.1193 31.0515 75.1193 29.579C75.1193 28.1035 75.456 27.0157 76.1304 26.3138C76.8033 25.6125 77.6854 25.2607 78.7705 25.2607C79.2263 25.2607 79.6982 25.3344 80.1889 25.4847C80.6799 25.6337 81.0078 25.7734 81.1751 25.9041C81.341 26.0387 81.4988 26.1023 81.6479 26.1023C81.7964 26.1023 82.0367 25.9284 82.3693 25.5766C82.7022 25.2257 83.0006 24.694 83.2637 23.985C83.5257 23.2723 83.657 22.7261 83.657 22.3386C83.657 21.9542 83.6486 21.6891 83.6316 21.5492C83.2637 21.1459 82.5847 20.8261 81.5944 20.5883C80.6059 20.3512 79.4976 20.2334 78.2716 20.2334C75.5738 20.2334 73.4642 21.0844 71.9408 22.7862C70.4162 24.4888 69.6553 26.6989 69.6553 29.4193C69.6553 32.6134 70.4341 35.0347 71.9917 36.6842C73.5521 38.3333 75.6008 39.157 78.1406 39.157C79.5065 39.157 80.7188 39.0393 81.778 38.8022C82.8384 38.566 83.5432 38.3235 83.8939 38.0783L83.999 29.8417C83.999 29.3631 82.7383 29.1458 81.324 29.1216Z" fill="#414042"/>
<path d="M75.7861 49.9318C75.6409 50.2302 75.374 50.5039 74.9836 50.7515C74.5936 51.0007 74.0982 51.1245 73.4964 51.1245C72.7025 51.1245 72.064 50.8739 71.5791 50.3671C71.096 49.8642 70.854 49.1394 70.854 48.1936V45.8352C70.854 44.9099 71.082 44.2003 71.5395 43.7049C71.996 43.2134 72.6076 42.9642 73.3713 42.9642C74.1177 42.9642 74.6964 43.161 75.106 43.5501C75.5143 43.9406 75.7289 44.4861 75.7475 45.1827L75.7373 45.2137H75.1278C75.106 44.6798 74.9512 44.2679 74.6601 43.9769C74.3707 43.6883 73.9399 43.5424 73.3713 43.5424C72.7958 43.5424 72.34 43.7375 72.0063 44.1289C71.6735 44.5194 71.5076 45.0855 71.5076 45.8292V48.201C71.5076 48.9722 71.687 49.5602 72.0454 49.9651C72.4037 50.3671 72.8868 50.5685 73.4964 50.5685C73.9416 50.5685 74.2995 50.4895 74.5673 50.3277C74.836 50.1682 75.0224 49.9735 75.1278 49.7425V47.6767H73.485V47.1025H75.7861V49.9318Z" fill="#6D6E71"/>
<path d="M78.8039 50.5349C79.1652 50.5349 79.4871 50.4323 79.7681 50.2235C80.0497 50.0136 80.247 49.7486 80.3641 49.4257V48.1509H79.3188C78.8744 48.1509 78.5184 48.277 78.2519 48.5293C77.9848 48.7799 77.8526 49.093 77.8526 49.4653C77.8526 49.7798 77.9352 50.0381 78.1025 50.2372C78.2696 50.437 78.5032 50.5349 78.8039 50.5349ZM80.4616 51.0105C80.429 50.8063 80.4036 50.6405 80.3876 50.5107C80.372 50.3785 80.3641 50.247 80.3641 50.1134C80.1856 50.4058 79.9552 50.6482 79.6706 50.8382C79.3865 51.0296 79.0705 51.1245 78.7224 51.1245C78.2356 51.1245 77.8612 50.9734 77.5962 50.6708C77.3328 50.3671 77.1997 49.9577 77.1997 49.4408C77.1997 48.8946 77.3912 48.4563 77.7752 48.1311C78.1589 47.8059 78.6803 47.6434 79.3363 47.6434H80.3641V46.9193C80.3641 46.5029 80.258 46.1749 80.0497 45.9378C79.837 45.7037 79.5448 45.5853 79.1676 45.5853C78.8167 45.5853 78.5272 45.697 78.3001 45.9233C78.0737 46.1483 77.9613 46.4232 77.9613 46.7507L77.351 46.7454L77.3403 46.7134C77.323 46.2691 77.4908 45.8762 77.8447 45.5282C78.1973 45.181 78.6496 45.0085 79.2001 45.0085C79.7442 45.0085 80.1821 45.1743 80.5165 45.5046C80.849 45.8382 81.0158 46.3138 81.0158 46.9323V49.8222C81.0158 50.0328 81.0256 50.2372 81.044 50.4323C81.0628 50.63 81.0933 50.8205 81.141 51.0105H80.4616Z" fill="#6D6E71"/>
<path d="M83.0654 45.1181L83.1212 46.0327C83.2757 45.7054 83.4828 45.4531 83.7395 45.2738C83.9971 45.0969 84.3003 45.0085 84.6484 45.0085C85.0037 45.0085 85.3032 45.112 85.5447 45.3216C85.7865 45.5305 85.9647 45.8466 86.078 46.2714C86.223 45.8793 86.4282 45.5694 86.6947 45.3452C86.9611 45.1204 87.2843 45.0085 87.6587 45.0085C88.1746 45.0085 88.5748 45.2176 88.8585 45.6361C89.1433 46.0555 89.2852 46.699 89.2852 47.5683V51.0105H88.6283V47.5569C88.6283 46.8342 88.5285 46.3252 88.3344 46.0327C88.1392 45.7396 87.8593 45.592 87.4972 45.592C87.1163 45.592 86.8189 45.7531 86.6051 46.0807C86.3924 46.4082 86.2612 46.8176 86.2135 47.3121V47.4648V51.0105H85.5598V47.5606C85.5598 46.8549 85.4612 46.3497 85.2592 46.0481C85.0582 45.7464 84.7785 45.5967 84.4194 45.5967C84.0762 45.5967 83.7986 45.7016 83.5906 45.9096C83.3811 46.1187 83.2322 46.405 83.1419 46.7682V51.0105H82.489V45.1181H83.0654Z" fill="#6D6E71"/>
<path d="M92.548 45.5853C92.1389 45.5853 91.8029 45.7723 91.5395 46.1453C91.2759 46.5197 91.1398 46.9811 91.1288 47.531H93.842V47.2788C93.842 46.7925 93.7282 46.3875 93.5002 46.0663C93.2707 45.7448 92.954 45.5853 92.548 45.5853ZM92.6404 51.1245C92.0063 51.1245 91.4876 50.8853 91.0848 50.4081C90.6832 49.9318 90.4819 49.3224 90.4819 48.5801V47.6017C90.4819 46.858 90.6837 46.2378 91.0874 45.7448C91.492 45.254 91.9781 45.0085 92.548 45.0085C93.1642 45.0085 93.6414 45.2274 93.9823 45.6667C94.3239 46.1066 94.4945 46.6976 94.4945 47.4392V48.0856H91.1288V48.5757C91.1288 49.1462 91.2652 49.621 91.5365 50.0001C91.8083 50.3801 92.1776 50.5685 92.6404 50.5685C92.962 50.5685 93.2419 50.5116 93.4753 50.3997C93.7087 50.2852 93.9088 50.1248 94.0751 49.9143L94.3425 50.3778C94.165 50.6035 93.9348 50.7858 93.654 50.921C93.3738 51.0555 93.0352 51.1245 92.6404 51.1245Z" fill="#6D6E71"/>
<path d="M99.8016 45.5853C99.3914 45.5853 99.0547 45.7723 98.7915 46.1453C98.5295 46.5197 98.3931 46.9811 98.3812 47.531H101.095V47.2788C101.095 46.7925 100.982 46.3875 100.752 46.0663C100.524 45.7448 100.207 45.5853 99.8016 45.5853ZM99.8933 51.1245C99.259 51.1245 98.7412 50.8853 98.3391 50.4081C97.9359 49.9318 97.7341 49.3224 97.7341 48.5801V47.6017C97.7341 46.858 97.9368 46.2378 98.3396 45.7448C98.7454 45.254 99.2317 45.0085 99.8016 45.0085C100.417 45.0085 100.896 45.2274 101.236 45.6667C101.576 46.1066 101.747 46.6976 101.747 47.4392V48.0856H98.3812V48.5757C98.3812 49.1462 98.5178 49.621 98.7908 50.0001C99.0612 50.3801 99.4288 50.5685 99.8933 50.5685C100.216 50.5685 100.495 50.5116 100.727 50.3997C100.962 50.2852 101.162 50.1248 101.33 49.9143L101.595 50.3778C101.418 50.6035 101.188 50.7858 100.907 50.921C100.627 51.0555 100.288 51.1245 99.8933 51.1245Z" fill="#6D6E71"/>
<path d="M103.471 45.1181L103.525 46.0921C103.681 45.7464 103.889 45.478 104.149 45.2913C104.407 45.1036 104.71 45.0085 105.059 45.0085C105.585 45.0085 105.987 45.2032 106.267 45.5944C106.549 45.9849 106.689 46.592 106.689 47.4156V51.0105H106.032V47.4217C106.032 46.7484 105.933 46.2782 105.738 46.0054C105.543 45.7326 105.257 45.5967 104.885 45.5967C104.551 45.5967 104.271 45.7054 104.047 45.9264C103.821 46.1453 103.653 46.4369 103.541 46.8046V51.0105H102.888V45.1181H103.471Z" fill="#6D6E71"/>
<path d="M108.604 48.5802C108.604 49.1782 108.717 49.6538 108.947 50.0077C109.173 50.3649 109.519 50.5411 109.979 50.5411C110.295 50.5411 110.56 50.4569 110.778 50.2844C110.996 50.1119 111.167 49.8718 111.294 49.5671V46.6483C111.172 46.3345 111.004 46.0808 110.793 45.8855C110.581 45.6934 110.313 45.5968 109.99 45.5968C109.531 45.5968 109.183 45.7973 108.952 46.2C108.72 46.6033 108.604 47.1292 108.604 47.775V48.5802ZM107.945 47.775C107.945 46.9399 108.113 46.2692 108.452 45.7638C108.787 45.2609 109.254 45.0086 109.849 45.0086C110.179 45.0086 110.469 45.0893 110.716 45.2511C110.964 45.4099 111.169 45.6423 111.334 45.9379L111.398 45.1182H111.952V51.016C111.952 51.7711 111.777 52.3563 111.426 52.7703C111.074 53.1827 110.575 53.3916 109.93 53.3916C109.698 53.3916 109.449 53.3552 109.183 53.2846C108.916 53.214 108.679 53.1212 108.472 53.0048L108.653 52.4306C108.83 52.5453 109.027 52.6342 109.246 52.6966C109.463 52.7612 109.687 52.7922 109.919 52.7922C110.387 52.7922 110.733 52.6418 110.957 52.3418C111.182 52.0378 111.294 51.5981 111.294 51.016V50.3033C111.128 50.5686 110.923 50.7721 110.68 50.9127C110.438 51.054 110.156 51.1246 109.837 51.1246C109.247 51.1246 108.783 50.8929 108.449 50.4294C108.113 49.9669 107.945 49.3498 107.945 48.5802V47.775Z" fill="#6D6E71"/>
<path d="M114.15 51.0107H113.491V45.1183H114.15V51.0107ZM114.15 43.4407H113.491V42.5124H114.15V43.4407Z" fill="#6D6E71"/>
<path d="M116.275 45.1181L116.329 46.0921C116.486 45.7464 116.692 45.478 116.952 45.2913C117.211 45.1036 117.515 45.0085 117.863 45.0085C118.388 45.0085 118.793 45.2032 119.073 45.5944C119.354 45.9849 119.493 46.592 119.493 47.4156V51.0105H118.836V47.4217C118.836 46.7484 118.738 46.2782 118.542 46.0054C118.346 45.7326 118.062 45.5967 117.689 45.5967C117.355 45.5967 117.076 45.7054 116.851 45.9264C116.626 46.1453 116.458 46.4369 116.346 46.8046V51.0105H115.693V45.1181H116.275Z" fill="#6D6E71"/>
<path d="M122.767 45.5853C122.357 45.5853 122.02 45.7723 121.758 46.1453C121.496 46.5197 121.359 46.9811 121.347 47.531H124.061V47.2788C124.061 46.7925 123.947 46.3875 123.718 46.0663C123.49 45.7448 123.173 45.5853 122.767 45.5853ZM122.86 51.1245C122.224 51.1245 121.706 50.8853 121.305 50.4081C120.903 49.9318 120.702 49.3224 120.702 48.5801V47.6017C120.702 46.858 120.903 46.2378 121.307 45.7448C121.711 45.254 122.198 45.0085 122.767 45.0085C123.382 45.0085 123.862 45.2274 124.203 45.6667C124.543 46.1066 124.714 46.6976 124.714 47.4392V48.0856H121.347V48.5757C121.347 49.1462 121.484 49.621 121.756 50.0001C122.027 50.3801 122.395 50.5685 122.86 50.5685C123.182 50.5685 123.46 50.5116 123.693 50.3997C123.928 50.2852 124.128 50.1248 124.296 49.9143L124.562 50.3778C124.384 50.6035 124.154 50.7858 123.873 50.921C123.593 51.0555 123.255 51.1245 122.86 51.1245Z" fill="#6D6E71"/>
<path d="M56.6088 40.9623C56.6088 40.9623 56.5332 40.4975 56.4889 40.5017L48.0697 41.3155C47.3998 41.3803 46.8795 41.9156 46.8325 42.5882L46.6012 45.9096L40.0877 46.3752L39.6447 43.365C39.546 42.6954 38.9624 42.1907 38.2869 42.1907H29.4009C28.7257 42.1907 28.1421 42.6954 28.0434 43.365L27.6002 46.3752L21.0867 45.9096L20.8554 42.5882C20.8084 41.9154 20.2881 41.3801 19.6182 41.3153L11.1948 40.5017C11.1512 40.4975 11.1194 40.9628 11.0759 40.9628L11.0645 42.7882L18.1983 43.9408L18.4319 47.2919C18.4791 47.9703 19.0255 48.5188 19.7031 48.5676L28.6736 49.2087C28.7075 49.211 28.741 49.2124 28.7745 49.2124C29.4486 49.2124 30.0313 48.7074 30.13 48.0379L30.5858 44.9405H37.1023L37.5582 48.0379C37.6566 48.7072 38.2399 49.2122 38.915 49.2122C38.948 49.2122 38.9811 49.211 39.0134 49.2087L47.985 48.5676C48.6624 48.5188 49.209 47.9703 49.2562 47.2919L49.4896 43.9408L56.6204 42.7831L56.6088 40.9623Z" fill="white"/>
<path d="M11.0757 27.198V38.2751V39.682V40.9624C11.1009 40.9626 11.126 40.9635 11.1509 40.9659L19.5734 41.7795C20.0145 41.8222 20.3603 42.1779 20.391 42.6209L20.6507 46.3458L27.9977 46.8711L28.5038 43.4331C28.5694 42.9874 28.951 42.657 29.4011 42.657H38.287C38.7368 42.657 39.1185 42.9874 39.1841 43.4331L39.6902 46.8711L47.0374 46.3458L47.2968 42.6209C47.3278 42.1779 47.6733 41.8224 48.1145 41.7795L56.5337 40.9659C56.5586 40.9635 56.5835 40.9626 56.6086 40.9624V39.8641L56.6121 39.8629V27.198C57.7981 25.7021 58.9212 24.0521 59.7816 22.6639C58.4667 20.4211 56.8555 18.4169 55.1334 16.56C53.5362 17.3655 51.9848 18.2779 50.5196 19.2489C49.7864 18.5188 48.9606 17.9215 48.1494 17.2972C47.3524 16.6558 46.4543 16.1856 45.6024 15.6377C45.856 13.7454 45.9814 11.8824 46.0319 9.93811C43.8339 8.82981 41.49 8.09497 39.1191 7.56717C38.1726 9.16109 37.307 10.8872 36.553 12.5746C35.659 12.4249 34.7609 12.3694 33.8615 12.3587V12.3573C33.8552 12.3573 33.8494 12.3587 33.8441 12.3587C33.8385 12.3587 33.8326 12.3573 33.8271 12.3573V12.3587C32.9261 12.3694 32.0286 12.4249 31.1344 12.5746C30.3809 10.8872 29.5158 9.16109 28.5678 7.56717C26.1981 8.09497 23.8539 8.82981 21.6562 9.93811C21.7064 11.8824 21.8319 13.7454 22.0862 15.6377C21.2327 16.1856 20.3357 16.6558 19.5385 17.2972C18.7285 17.9215 17.9012 18.5188 17.1678 19.2489C15.7026 18.2779 14.1517 17.3655 12.554 16.56C10.8319 18.4169 9.22165 20.4211 7.90625 22.6639C8.94002 24.2896 10.0489 25.9237 11.0757 27.198Z" fill="#478CBF"/>
<path d="M49.0527 43.5147L48.7919 47.2594C48.7605 47.7108 48.4021 48.07 47.9516 48.1025L38.9802 48.7438C38.9584 48.7454 38.9365 48.7461 38.9148 48.7461C38.469 48.7461 38.0844 48.4183 38.0185 47.9698L37.504 44.4742H30.1838L29.6693 47.9698C29.6002 48.4403 29.1805 48.7785 28.7076 48.7438L19.7362 48.1025C19.2858 48.07 18.9274 47.7108 18.896 47.2594L18.6352 43.5147L11.0618 42.7831C11.0653 43.5986 11.0757 44.4919 11.0757 44.6698C11.0757 52.6835 21.2222 56.5353 33.8285 56.5796H33.8438H33.8594C46.4657 56.5353 56.6086 52.6835 56.6086 44.6698C56.6086 44.4887 56.6196 43.599 56.6233 42.7831L49.0527 43.5147Z" fill="#478CBF"/>
<path d="M26.9803 32.7856C26.9803 35.5953 24.708 37.8713 21.9046 37.8713C19.1025 37.8713 16.8296 35.5953 16.8296 32.7856C16.8296 29.9777 19.1025 27.7028 21.9046 27.7028C24.708 27.7028 26.9803 29.9777 26.9803 32.7856Z" fill="white"/>
<path d="M25.759 33.0871C25.759 34.9507 24.2514 36.4612 22.3899 36.4612C20.5293 36.4612 19.0208 34.9507 19.0208 33.0871C19.0208 31.2234 20.5293 29.7115 22.3899 29.7115C24.2514 29.7115 25.759 31.2234 25.759 33.0871Z" fill="#414042"/>
<path d="M33.8437 38.334C32.9413 38.334 32.21 37.6677 32.21 36.8464V32.1649C32.21 31.3442 32.9413 30.6772 33.8437 30.6772C34.7461 30.6772 35.479 31.3442 35.479 32.1649V36.8464C35.479 37.6677 34.7461 38.334 33.8437 38.334Z" fill="white"/>
<path d="M40.7078 32.7856C40.7078 35.5953 42.98 37.8713 45.7839 37.8713C48.5857 37.8713 50.8584 35.5953 50.8584 32.7856C50.8584 29.9777 48.5857 27.7028 45.7839 27.7028C42.98 27.7028 40.7078 29.9777 40.7078 32.7856Z" fill="white"/>
<path d="M41.9294 33.0871C41.9294 34.9507 43.4366 36.4612 45.2967 36.4612C47.1587 36.4612 48.6658 34.9507 48.6658 33.0871C48.6658 31.2234 47.1587 29.7115 45.2967 29.7115C43.4366 29.7115 41.9294 31.2234 41.9294 33.0871Z" fill="#414042"/>
</g>
</g>
<defs>
<clipPath id="clip0_1_310">
<rect width="158" height="64" fill="white" transform="translate(0.5)"/>
</clipPath>
</defs>
</svg>
