<svg width="114" height="144" viewBox="0 0 114 144" fill="none" xmlns="http://www.w3.org/2000/svg">
<path d="M29.071 98.4744C28.802 98.4744 28.6675 98.2852 28.6675 97.9066C28.6675 97.5281 28.8638 97.1059 29.2564 96.64C29.9108 95.8539 30.8196 95.3989 31.983 95.2752L32.5828 95.2424C33.9061 95.2424 34.8658 95.7702 35.462 96.8257C35.8183 97.4735 35.9964 98.2196 35.9964 99.064C35.9964 99.4134 35.9674 99.781 35.9092 100.167C35.6983 101.463 35.1967 102.562 34.4041 103.464C33.5316 104.462 32.5137 104.96 31.3504 104.96C30.1943 104.96 29.46 104.636 29.1474 103.988C29.0528 103.785 29.0056 103.57 29.0056 103.344C29.0056 103.111 29.0674 102.867 29.191 102.613C29.4309 102.147 29.7581 101.914 30.1725 101.914C30.2089 101.914 30.2307 101.936 30.238 101.979C30.2525 102.016 30.2489 102.056 30.2271 102.099C30.2125 102.143 30.1871 102.165 30.1507 102.165C29.9035 102.165 29.689 102.325 29.5073 102.645C29.3909 102.871 29.3328 103.079 29.3328 103.268C29.3328 103.457 29.3691 103.632 29.4418 103.792C29.6745 104.287 30.2307 104.534 31.1105 104.534C32.1066 104.534 33.0081 104.025 33.8152 103.006C34.5423 102.089 35.0112 101.011 35.2221 99.7738C35.2948 99.3734 35.3312 98.9949 35.3312 98.6382C35.3312 97.8448 35.153 97.1751 34.7968 96.6291C34.3242 95.8939 33.5825 95.5263 32.5719 95.5263C31.3068 95.5263 30.3579 95.9522 29.7254 96.8038C29.4055 97.2406 29.2455 97.6482 29.2455 98.0267C29.2455 98.1796 29.2782 98.256 29.3437 98.256C29.3 98.4016 29.2092 98.4744 29.071 98.4744ZM30.6415 102.613C30.6415 101.506 30.7397 100.433 30.936 99.3916C31.1323 98.3434 31.3722 97.5172 31.6558 96.913C31.9466 96.3016 32.2265 95.9958 32.4956 95.9958C32.6119 95.9958 32.67 96.0541 32.67 96.1705C32.3429 96.8475 32.0557 97.7501 31.8085 98.8784C31.3504 100.938 31.1214 102.427 31.1214 103.344C31.1214 103.439 31.0705 103.486 30.9687 103.486C30.7506 103.486 30.6415 103.195 30.6415 102.613Z" fill="black"/>
<path d="M40.2337 100.56C39.9574 100.56 39.8193 100.258 39.8193 99.6538C39.8193 99.3117 39.8847 98.9914 40.0156 98.693C39.5212 99.1224 38.9686 99.9232 38.3578 101.095C37.7471 102.26 37.4417 103.02 37.4417 103.377C37.4417 103.465 37.3835 103.508 37.2672 103.508C37.0564 103.508 36.9509 103.221 36.9509 102.646C36.9509 101.561 37.06 100.578 37.2781 99.6975C37.4962 98.8167 37.7616 98.3763 38.0743 98.3763C38.2124 98.3763 38.2815 98.4564 38.2815 98.6165C37.947 99.6793 37.7071 100.768 37.5617 101.881H37.638C38.227 100.52 38.8777 99.4573 39.5902 98.693C39.9974 98.2562 40.3682 98.0378 40.7027 98.0378C40.7754 98.0378 40.8335 98.0597 40.8772 98.1034C40.928 98.147 40.9535 98.2016 40.9535 98.2671C40.9026 98.3181 40.8408 98.3945 40.7681 98.4964C40.6954 98.5983 40.5972 98.8422 40.4736 99.228C40.35 99.6065 40.2882 100.021 40.2882 100.473C40.2882 100.531 40.27 100.56 40.2337 100.56Z" fill="black"/>
<path d="M41.8618 103.694C41.2656 103.694 40.9675 103.224 40.9675 102.285C40.9675 101.725 41.1057 101.11 41.382 100.44C41.7673 99.5009 42.2726 98.8603 42.8979 98.5182C43.1669 98.3726 43.4178 98.2998 43.6505 98.2998C43.8831 98.2998 44.0649 98.3508 44.1958 98.4527C44.3339 98.5546 44.4212 98.6565 44.4575 98.7584L44.523 98.9003C44.5011 99.0241 44.4393 99.086 44.3375 99.086C44.2212 99.086 44.1521 99.0605 44.1303 99.0095C44.1158 98.9513 44.0976 98.904 44.0758 98.8676C44.054 98.8239 44.0031 98.7693 43.9231 98.7038C43.8431 98.631 43.7522 98.5946 43.6505 98.5946C43.1779 98.5946 42.7489 99.0204 42.3635 99.8721C41.9273 100.855 41.7092 101.779 41.7092 102.646C41.7092 103.082 41.7964 103.301 41.9709 103.301C42.109 103.301 42.3017 103.148 42.5489 102.842C42.8034 102.529 43.0688 102.14 43.3451 101.674C43.825 100.873 44.2139 100.178 44.512 99.5882C44.7592 99.0641 45.0137 98.8021 45.2755 98.8021C45.4136 98.8021 45.4827 98.8858 45.4827 99.0532C45.4173 99.1915 45.3336 99.388 45.2319 99.6428C45.1301 99.8976 44.9956 100.404 44.8283 101.161C44.6611 101.918 44.5775 102.671 44.5775 103.421C44.5775 104.171 44.6902 104.545 44.9156 104.545C45.0028 104.545 45.0828 104.505 45.1555 104.425C45.2282 104.352 45.2937 104.24 45.3518 104.087C45.3736 104.007 45.4245 103.967 45.5045 103.967C45.5336 103.967 45.5554 103.978 45.5699 103.999C45.5845 104.021 45.5845 104.058 45.5699 104.109C45.5554 104.16 45.53 104.229 45.4936 104.316C45.4572 104.411 45.3773 104.534 45.2537 104.687C45.1373 104.84 45.0137 104.917 44.8829 104.917C44.5775 104.917 44.3412 104.716 44.174 104.316C44.014 103.916 43.934 103.443 43.934 102.897C43.934 102.351 43.974 101.827 44.054 101.324H43.9449C43.0215 102.904 42.3272 103.694 41.8618 103.694Z" fill="black"/>
<path d="M52.0758 98.7475C52.2866 98.9076 52.4866 98.9877 52.6756 98.9877C52.8719 98.9877 53.0101 98.9622 53.0901 98.9112C53.0901 99.0059 53.0464 99.0969 52.9592 99.1842C52.8792 99.2643 52.7592 99.3043 52.5993 99.3043C52.4466 99.3043 52.2794 99.2679 52.0976 99.1951C52.0831 99.8794 51.9704 100.582 51.7595 101.302C51.5487 102.016 51.276 102.616 50.9415 103.104C50.6071 103.585 50.2763 103.825 49.9491 103.825C49.6219 103.825 49.3711 103.697 49.1966 103.443C49.0148 103.159 48.9239 102.755 48.9239 102.231C48.9239 101.932 48.9421 101.612 48.9784 101.27C48.0768 102.886 47.3825 103.694 46.8953 103.694C46.4155 103.694 46.1755 103.286 46.1755 102.471C46.1755 101.626 46.3828 100.724 46.7972 99.7629C47.1462 98.9986 47.4661 98.5982 47.7569 98.5618C47.8951 98.5618 47.9642 98.6383 47.9642 98.7911C47.8769 99.0022 47.7678 99.2752 47.637 99.6101C47.5061 99.9376 47.3316 100.465 47.1135 101.193C46.9026 101.921 46.7972 102.46 46.7972 102.809C46.7972 103.151 46.8735 103.322 47.0262 103.322C47.2153 103.322 47.5097 103.017 47.9096 102.405C48.3168 101.794 48.6731 101.182 48.9784 100.571L49.4474 99.6647C49.651 99.257 49.8327 99.0532 49.9927 99.0532C50.1527 99.0532 50.2326 99.1296 50.2326 99.2825C49.7891 100.804 49.5674 101.994 49.5674 102.853C49.5674 103.253 49.6837 103.453 49.9164 103.453C50.1781 103.453 50.4508 103.239 50.7343 102.809C51.0252 102.373 51.2651 101.808 51.4541 101.117C51.6504 100.418 51.7486 99.7302 51.7486 99.0532V98.9877C51.5377 98.8348 51.3669 98.6528 51.236 98.4417C51.1051 98.2306 51.0397 98.0741 51.0397 97.9722C51.0397 97.863 51.087 97.7648 51.1815 97.6774C51.276 97.5901 51.3778 97.5464 51.4869 97.5464C51.625 97.5464 51.7486 97.6701 51.8577 97.9176C51.9667 98.1578 52.0394 98.4345 52.0758 98.7475Z" fill="black"/>
<path d="M57.8559 98.1033C57.8559 98.6419 58.0085 98.9295 58.3139 98.9659C58.2921 99.0678 58.2085 99.1187 58.0631 99.1187C57.765 99.1187 57.5541 98.9368 57.4305 98.5728C57.3723 98.4054 57.3433 98.2015 57.3433 97.9613C57.3433 97.7138 57.4378 97.419 57.6268 97.0769C58.0558 96.2835 58.8338 95.7739 59.9608 95.5483C60.3461 95.4755 60.7569 95.4391 61.1931 95.4391C61.6367 95.4391 62.0147 95.3954 62.3274 95.3081C62.64 95.2207 62.8545 95.1224 62.9709 95.0132C63.2762 94.7293 63.5016 94.5874 63.647 94.5874C63.7925 94.5874 63.8652 94.6311 63.8652 94.7184C63.8652 94.7403 63.8652 94.7621 63.8652 94.7839C63.8143 94.9878 63.5961 95.1807 63.2108 95.3626C62.9781 95.4646 62.7164 95.5446 62.4255 95.6029C62.1856 95.7048 61.9857 95.985 61.8257 96.4436C61.6658 96.8949 61.4985 97.5501 61.324 98.409C61.7021 98.3726 62.0147 98.3544 62.262 98.3544C62.3274 98.3544 62.3565 98.3945 62.3492 98.4745C62.3201 98.5619 62.2438 98.6092 62.1202 98.6165C61.9966 98.6165 61.7094 98.6529 61.2586 98.7257C60.9169 100.414 60.6188 101.608 60.3643 102.307C59.7245 104.076 58.812 104.96 57.6268 104.96C56.7761 104.96 56.2454 104.571 56.0345 103.792C55.9545 103.523 55.9146 103.253 55.9146 102.984C55.9146 102.474 56.0491 101.965 56.3181 101.455C56.7252 100.676 57.2597 100.287 57.9213 100.287C58.0158 100.287 58.0922 100.309 58.1503 100.353C58.2158 100.396 58.2594 100.462 58.2812 100.549C57.6559 100.549 57.1397 100.873 56.7325 101.521C56.4126 102.023 56.2526 102.544 56.2526 103.082C56.2526 103.868 56.5289 104.349 57.0815 104.524C57.2124 104.56 57.3833 104.578 57.5941 104.578C57.805 104.578 58.0267 104.516 58.2594 104.393C58.4993 104.276 58.7138 104.058 58.9028 103.737C59.0992 103.424 59.2591 103.162 59.3827 102.951C59.5063 102.733 59.6481 102.347 59.8081 101.794C59.9971 101.117 60.1571 100.491 60.2879 99.9158C60.4188 99.3335 60.4988 98.9841 60.5279 98.8676C60.1207 98.9331 59.8117 98.9659 59.6008 98.9659C59.3973 98.9659 59.2809 98.8749 59.2518 98.6929C59.2446 98.5473 59.2846 98.4636 59.3718 98.4418C59.4082 98.4854 59.5209 98.5073 59.7099 98.5073C59.9062 98.5073 60.2116 98.4891 60.626 98.4527C60.8078 97.7393 60.9823 97.1606 61.1495 96.7166C61.3168 96.2653 61.5131 95.9231 61.7385 95.6902C61.6221 95.6975 61.4404 95.7011 61.1931 95.7011C59.7972 95.7011 58.8192 96.1124 58.2594 96.935C57.9904 97.3208 57.8559 97.7102 57.8559 98.1033ZM62.6546 100.342C62.6546 100.378 62.6219 100.396 62.5564 100.396C62.491 100.396 62.4255 100.382 62.3601 100.353C62.3019 100.323 62.2729 100.283 62.2729 100.232C62.2729 99.49 62.3565 98.8931 62.5237 98.4418C62.6909 97.9832 62.9127 97.7539 63.189 97.7539C63.2617 97.7539 63.3235 97.7794 63.3744 97.8303C63.4253 97.8813 63.4507 97.9504 63.4507 98.0378C63.1235 98.3653 62.8872 98.853 62.7418 99.5009C62.6837 99.7702 62.6546 100.05 62.6546 100.342Z" fill="black"/>
<path d="M66.8335 100.56C66.5573 100.56 66.4191 100.258 66.4191 99.6538C66.4191 99.3117 66.4845 98.9914 66.6154 98.693C66.121 99.1224 65.5684 99.9232 64.9577 101.095C64.3469 102.26 64.0416 103.02 64.0416 103.377C64.0416 103.465 63.9834 103.508 63.8671 103.508C63.6562 103.508 63.5508 103.221 63.5508 102.646C63.5508 101.561 63.6598 100.578 63.878 99.6975C64.0961 98.8167 64.3615 98.3763 64.6741 98.3763C64.8123 98.3763 64.8813 98.4564 64.8813 98.6165C64.5469 99.6793 64.3069 100.768 64.1615 101.881H64.2379C64.8268 100.52 65.4775 99.4573 66.1901 98.693C66.5972 98.2562 66.9681 98.0378 67.3025 98.0378C67.3752 98.0378 67.4334 98.0597 67.477 98.1034C67.5279 98.147 67.5533 98.2016 67.5533 98.2671C67.5025 98.3181 67.4407 98.3945 67.3679 98.4964C67.2952 98.5983 67.1971 98.8422 67.0735 99.228C66.9499 99.6065 66.8881 100.021 66.8881 100.473C66.8881 100.531 66.8699 100.56 66.8335 100.56Z" fill="black"/>
<path d="M70.4031 98.3982C70.9557 98.3982 71.232 98.7221 71.232 99.37C71.232 99.7412 71.1083 100.131 70.8611 100.538C70.4394 101.215 69.8796 101.554 69.1816 101.554C69.0725 101.554 68.9816 101.536 68.9089 101.499C68.8362 101.463 68.7817 101.408 68.7453 101.335C69.2616 101.335 69.7342 101.037 70.1631 100.44C70.5121 99.9596 70.6866 99.5192 70.6866 99.1188C70.6866 98.8204 70.5667 98.6712 70.3267 98.6712C69.8469 98.6712 69.3997 99.0461 68.9853 99.7958C68.5418 100.611 68.32 101.448 68.32 102.307C68.32 103.035 68.5272 103.472 68.9416 103.617C69.0216 103.647 69.1234 103.661 69.247 103.661C69.3706 103.661 69.5015 103.632 69.6396 103.574C69.7778 103.508 69.8941 103.432 69.9886 103.344C70.1777 103.17 70.334 102.977 70.4576 102.766C70.4867 102.708 70.5412 102.678 70.6212 102.678C70.7521 102.678 70.8139 102.7 70.8066 102.744C70.7848 102.824 70.7012 102.959 70.5558 103.148C70.4176 103.337 70.2867 103.49 70.1631 103.606C70.0468 103.716 69.8905 103.814 69.6942 103.901C69.5051 103.996 69.3125 104.043 69.1161 104.043C68.3454 104.043 67.8547 103.679 67.6438 102.951C67.5784 102.704 67.5457 102.449 67.5457 102.187C67.5457 101.699 67.6584 101.168 67.8838 100.593C68.24 99.7194 68.7308 99.0897 69.3561 98.7039C69.6978 98.5001 70.0468 98.3982 70.4031 98.3982Z" fill="black"/>
<path d="M74.6367 98.3982C75.1893 98.3982 75.4656 98.7221 75.4656 99.37C75.4656 99.7412 75.342 100.131 75.0948 100.538C74.6731 101.215 74.1132 101.554 73.4152 101.554C73.3062 101.554 73.2153 101.536 73.1426 101.499C73.0699 101.463 73.0153 101.408 72.979 101.335C73.4952 101.335 73.9678 101.037 74.3968 100.44C74.7458 99.9596 74.9203 99.5192 74.9203 99.1188C74.9203 98.8204 74.8003 98.6712 74.5604 98.6712C74.0805 98.6712 73.6334 99.0461 73.2189 99.7958C72.7754 100.611 72.5536 101.448 72.5536 102.307C72.5536 103.035 72.7609 103.472 73.1753 103.617C73.2553 103.647 73.3571 103.661 73.4807 103.661C73.6043 103.661 73.7351 103.632 73.8733 103.574C74.0114 103.508 74.1278 103.432 74.2223 103.344C74.4113 103.17 74.5677 102.977 74.6913 102.766C74.7203 102.708 74.7749 102.678 74.8548 102.678C74.9857 102.678 75.0475 102.7 75.0402 102.744C75.0184 102.824 74.9348 102.959 74.7894 103.148C74.6513 103.337 74.5204 103.49 74.3968 103.606C74.2805 103.716 74.1241 103.814 73.9278 103.901C73.7388 103.996 73.5461 104.043 73.3498 104.043C72.5791 104.043 72.0883 103.679 71.8775 102.951C71.812 102.704 71.7793 102.449 71.7793 102.187C71.7793 101.699 71.892 101.168 72.1174 100.593C72.4737 99.7194 72.9644 99.0897 73.5897 98.7039C73.9315 98.5001 74.2805 98.3982 74.6367 98.3982Z" fill="black"/>
<path d="M77.6159 105.288C77.1942 105.288 76.8816 105.066 76.678 104.622C76.4817 104.178 76.3835 103.512 76.3835 102.624C76.3835 101.736 76.5144 100.684 76.7762 99.468C77.0379 98.2524 77.3433 97.2442 77.6923 96.4435C78.0486 95.6428 78.3576 95.2424 78.6193 95.2424C78.7429 95.2424 78.8047 95.3152 78.8047 95.4608C78.652 95.8102 78.4594 96.338 78.2267 97.044C77.994 97.7428 77.7977 98.3907 77.6378 98.9876C77.4851 99.5845 77.3433 100.283 77.2124 101.084C77.0888 101.885 77.027 102.573 77.027 103.148C77.027 103.715 77.0815 104.152 77.1906 104.458C77.3069 104.771 77.4633 104.927 77.6596 104.927C77.8268 104.927 77.9868 104.847 78.1394 104.687C78.2921 104.534 78.4012 104.382 78.4666 104.229C78.503 104.149 78.5684 104.127 78.6629 104.163C78.6993 104.178 78.7066 104.207 78.6848 104.25C78.6702 104.301 78.6411 104.363 78.5975 104.436C78.5612 104.509 78.4921 104.622 78.3903 104.775C78.1722 105.117 77.914 105.288 77.6159 105.288Z" fill="black"/>
<path d="M79.1938 107.111C79.8482 107.111 80.3608 106.802 80.7316 106.183C81.0515 105.637 81.2987 104.957 81.4732 104.142C80.1572 104.171 79.1466 104.673 78.4413 105.648C78.3977 105.714 78.3286 105.725 78.2341 105.681C78.1832 105.652 78.1686 105.616 78.1905 105.572C78.5031 105.099 78.9393 104.695 79.4992 104.36C80.059 104.032 80.7389 103.854 81.5387 103.825C81.6186 103.461 81.695 103.035 81.7677 102.547C81.8404 102.06 81.924 101.587 82.0185 101.128H81.9204C80.9752 102.809 80.2554 103.65 79.7609 103.65C79.2084 103.65 78.9321 103.224 78.9321 102.373C78.9321 101.521 79.1138 100.666 79.4774 99.8067C79.8409 98.9405 80.1717 98.4746 80.4698 98.4091L80.5353 98.3982C80.6589 98.3982 80.7207 98.4783 80.7207 98.6384C80.6407 98.835 80.5389 99.0934 80.4153 99.4137C80.2917 99.7267 80.1281 100.247 79.9245 100.975C79.721 101.696 79.6192 102.26 79.6192 102.667C79.6192 103.068 79.7064 103.268 79.8809 103.268C80.0845 103.268 80.4117 102.915 80.8625 102.209C81.5241 101.175 82.0985 100.127 82.5857 99.0642C82.7965 98.6202 83.0219 98.3982 83.2618 98.3982C83.4145 98.3982 83.4909 98.4819 83.4909 98.6493C83.3527 98.9041 83.1855 99.3809 82.9892 100.08C82.7929 100.779 82.6329 101.485 82.5093 102.198C82.3857 102.904 82.2803 103.457 82.193 103.858C82.7456 103.952 83.0655 104.192 83.1528 104.578C83.1673 104.644 83.1746 104.731 83.1746 104.84C83.1746 104.957 83.131 105.055 83.0437 105.135C82.9565 105.222 82.8801 105.266 82.8147 105.266C82.8292 105.215 82.8329 105.124 82.8256 104.993C82.8183 104.869 82.7929 104.764 82.7492 104.677C82.7129 104.589 82.6402 104.498 82.5311 104.404C82.4221 104.309 82.2803 104.24 82.1058 104.196C81.5459 106.307 80.5753 107.363 79.1938 107.363C78.5976 107.363 78.2014 107.151 78.005 106.729C77.9978 106.707 77.9941 106.689 77.9941 106.675C77.9941 106.631 78.0341 106.602 78.1141 106.587C78.1868 106.58 78.2413 106.606 78.2777 106.664C78.4086 106.962 78.714 107.111 79.1938 107.111Z" fill="black"/>
<path d="M84.7981 103.77C84.6454 103.77 84.5691 103.628 84.5691 103.344C84.5691 103.17 84.6164 102.984 84.7109 102.787C84.8054 102.591 84.9399 102.493 85.1144 102.493C85.2598 102.493 85.3325 102.576 85.3325 102.744C85.3325 102.911 85.198 103.191 84.929 103.585L84.7981 103.77Z" fill="black"/>
<path d="M20.2986 86.6558C20.2642 85.2407 20.2469 84.4469 20.2469 83.0145C20.2469 81.5822 20.2469 80.7365 20.2986 79.2869C20.3331 77.8546 20.5744 77.8028 21.7811 77.7165C21.8845 77.613 21.8845 77.4231 21.7811 77.3196C21.1433 77.3541 20.0746 77.4059 19.5574 77.4059C19.0403 77.4059 17.8682 77.3541 17.3166 77.3196C17.2132 77.4231 17.2132 77.613 17.3166 77.7165C18.5232 77.82 18.799 77.8546 18.8335 79.2869C18.8679 80.7193 18.8852 81.5649 18.8852 82.9973C18.8852 84.4296 18.8679 85.2235 18.8335 86.6558C18.799 88.0882 18.5232 88.1745 17.3166 88.2262C17.2132 88.3298 17.2132 88.5196 17.3166 88.6232C17.9888 88.5887 19.0403 88.5369 19.5574 88.5369C20.0746 88.5369 21.0743 88.5714 21.7811 88.6232C21.8845 88.5196 21.8845 88.3298 21.7811 88.2262C20.5744 88.1745 20.3331 88.0882 20.2986 86.6558Z" fill="black"/>
<path d="M32.1609 79.4767L32.1781 85.4651C32.1781 85.793 32.0919 85.9828 31.9713 85.9828C31.8334 85.9828 31.6438 85.6722 31.1439 85.0336L25.2315 77.4059L23.0078 77.3714C22.9044 77.4749 22.9044 77.6647 23.0078 77.7683C23.8352 77.82 24.2662 78.3723 24.4558 79.0453L24.4385 86.466C24.4385 88.0019 24.1455 88.1054 22.9389 88.2262C22.8355 88.3298 22.8355 88.5196 22.9389 88.6232C23.7835 88.6059 24.0766 88.5369 24.8005 88.5369C25.5245 88.5369 25.7831 88.6059 26.6449 88.6232C26.7484 88.5196 26.7484 88.3298 26.6449 88.2262C25.4383 88.1054 25.1453 88.0364 25.1453 86.466L25.128 80.9609C25.128 80.3741 25.2142 80.1153 25.3521 80.1153C25.4555 80.1153 25.6452 80.3051 25.9382 80.6848L31.954 88.2953C32.1436 88.5541 32.3677 88.7095 32.6435 88.7095C32.8849 88.7095 32.8504 88.5024 32.8504 88.1745L32.8676 79.4767C32.8676 77.9408 33.1606 77.8373 34.3673 77.7165C34.4707 77.613 34.4707 77.4231 34.3673 77.3196C33.5226 77.3368 33.2296 77.4059 32.5056 77.4059C31.7817 77.4059 31.5231 77.3368 30.6612 77.3196C30.5578 77.4231 30.5578 77.613 30.6612 77.7165C31.8678 77.8373 32.1609 77.9063 32.1609 79.4767Z" fill="black"/>
<path d="M38.3439 86.6558C38.3094 85.2752 38.2922 84.4814 38.2922 83.1181C38.8955 83.1353 39.4988 83.4114 39.8608 83.8601L42.5671 87.2771C42.9118 87.7258 43.1531 88.2435 43.1876 88.5196C43.1876 88.5714 43.2048 88.6232 43.2738 88.6232C43.6185 88.6059 43.5841 88.5369 44.1012 88.5369C44.7734 88.5369 45.2044 88.6059 46.0145 88.6232C46.118 88.5196 46.118 88.3298 46.0145 88.2262C45.7043 88.1745 44.9113 88.0019 44.3253 87.2771L40.5503 82.7902C40.4124 82.6348 40.3262 82.4968 40.3262 82.3587C40.3262 82.2379 40.3434 82.1171 40.9295 81.5131L43.4634 78.9073C44.2563 78.0616 45.1182 77.8028 45.8077 77.7165C45.9111 77.613 45.9111 77.4231 45.8077 77.3196C44.9975 77.3368 44.6873 77.4059 43.9978 77.4059C43.3083 77.4059 42.7739 77.3368 41.9638 77.3196C41.8603 77.4231 41.8603 77.613 41.9638 77.7165C42.5843 77.7683 43.3255 78.0616 42.6188 78.8382L39.8608 81.8755C39.4988 82.2724 38.93 82.5831 38.2922 82.6348C38.2922 81.4268 38.3094 80.5985 38.3439 79.2869C38.3784 77.8546 38.6369 77.7683 39.8436 77.7165C39.947 77.613 39.947 77.4231 39.8436 77.3196C38.9989 77.3368 38.4646 77.4059 37.5855 77.4059C36.7236 77.4059 36.2409 77.3368 35.3791 77.3196C35.2757 77.4231 35.2757 77.613 35.3791 77.7165C36.5857 77.7683 36.827 77.8546 36.8615 79.2869C36.896 80.7193 36.9304 81.5649 36.9304 82.9973C36.9304 84.4296 36.896 85.2235 36.8615 86.6558C36.827 88.0882 36.5857 88.1745 35.3791 88.2262C35.2757 88.3298 35.2757 88.5196 35.3791 88.6232C36.2237 88.6059 36.7408 88.5369 37.6199 88.5369C38.4818 88.5369 38.9817 88.6059 39.8436 88.6232C39.947 88.5196 39.947 88.3298 39.8436 88.2262C38.6369 88.1745 38.3784 88.0882 38.3439 86.6558Z" fill="black"/>
<path d="M52.9697 77.6474C51.9699 77.5093 52.0216 77.1814 50.3323 77.1814C48.5914 77.1814 47.0573 78.3376 47.0573 80.1669C47.0573 81.7891 48.1949 82.5657 49.5394 83.1352C50.6254 83.6184 52.4181 83.9981 52.4181 85.9654C52.4181 87.3633 51.5907 88.2606 50.2289 88.2606C48.6086 88.2606 47.402 87.3633 47.0228 85.6375C46.8159 85.5685 46.7987 85.603 46.6436 85.6893C46.7125 87.0181 46.7815 87.4668 46.9883 88.3124C48.0743 88.3124 48.5397 88.7093 50.0738 88.7093C50.8667 88.7093 51.6079 88.5195 52.2112 88.1571C53.1937 87.5358 53.8315 86.4659 53.8315 85.3614C53.8315 83.722 52.7111 82.9454 51.4528 82.4104C50.6254 82.0652 48.2466 81.3922 48.2466 79.701C48.2466 78.7346 49.1602 77.5956 50.16 77.5956C51.8492 77.5956 52.556 78.8381 52.9007 79.9771C53.0903 79.9771 53.1248 79.9944 53.2799 79.8736C53.2282 79.0452 53.1593 78.562 52.9697 77.6474Z" fill="black"/>
<path d="M60.5778 88.7093C62.2498 88.7093 63.9563 87.9155 65.1285 86.3796C65.0423 86.2243 64.9216 86.1207 64.732 86.1207C63.5082 87.4668 62.336 88.0018 60.7329 88.0018C58.0612 88.0018 56.7166 85.2924 56.7166 82.7728C56.7166 79.9598 58.5093 77.6474 60.6812 77.6474C63.06 77.6474 64.077 79.235 64.5252 80.7192C64.6803 80.7364 64.7837 80.7192 64.9216 80.6329C64.8354 79.7355 64.7148 78.9071 64.5424 77.958C63.6633 77.8717 62.8876 77.1814 60.7674 77.1814C57.3544 77.1814 55.1653 79.8563 55.1653 83.1007C55.1653 86.1552 56.8718 88.7093 60.5778 88.7093Z" fill="black"/>
<path d="M70.2201 83.7392C69.8408 83.7392 69.7202 83.6011 69.7891 83.4286L71.5991 78.9589H71.6508L73.3056 83.7392H70.2201ZM68.2722 87.346L69.3065 84.6711C69.3927 84.4468 69.4961 84.2914 69.9098 84.2914H73.5124L74.5983 87.4668C74.8397 88.1744 74.1502 88.1744 73.3228 88.2261C73.2194 88.3297 73.2194 88.5195 73.3228 88.623C73.9606 88.6058 74.9086 88.5368 75.5809 88.5368C76.2876 88.5368 77.0288 88.6058 77.6666 88.623C77.77 88.5195 77.77 88.3297 77.6666 88.2261C76.9943 88.1744 76.4255 88.1053 76.1152 87.2252L72.5126 77.1814C72.2541 77.3367 71.8404 77.5265 71.6163 77.5265L67.6172 86.9491C67.1691 88.0018 66.6519 88.1744 65.8935 88.2261C65.7901 88.3297 65.7901 88.5195 65.8935 88.623C66.5313 88.6058 66.9277 88.5368 67.6 88.5368C68.3067 88.5368 68.8238 88.6058 69.4616 88.623C69.565 88.5195 69.565 88.3297 69.4616 88.2261C68.8066 88.1916 67.9964 88.0708 68.2722 87.346Z" fill="black"/>
<path d="M81.0146 83.4286C81.3938 83.5494 81.8937 83.5839 82.4797 83.5839C85.6169 83.5839 86.5133 81.6165 86.5133 80.1497C86.5133 79.1315 85.8755 77.2332 82.6866 77.2332C82.2384 77.2332 81.0318 77.4057 80.3423 77.4057C79.4804 77.4057 78.9978 77.3367 78.1359 77.3194C78.0325 77.423 78.0325 77.6128 78.1359 77.7164C79.3425 77.7681 79.6011 77.8544 79.6183 79.2868C79.6356 80.7192 79.6528 81.5648 79.6528 82.9971C79.6528 84.4295 79.6528 85.2233 79.6183 86.6557C79.5839 88.1053 79.3425 88.1743 78.1359 88.2261C78.0325 88.3297 78.0325 88.5195 78.1359 88.623C78.9805 88.6058 79.4977 88.5367 80.3768 88.5367C81.3421 88.5367 81.9626 88.6058 82.8245 88.623C82.9279 88.5195 82.9279 88.3297 82.8245 88.2261C81.6351 88.1571 81.0663 88.0708 81.049 87.0699C81.0318 85.7756 81.0146 84.6711 81.0146 83.4286ZM81.049 78.4757C81.0663 77.9752 81.3421 77.6473 82.5832 77.6473C83.7725 77.6473 84.9964 78.2686 84.9964 80.4603C84.9964 82.3241 84.0483 83.1697 82.3763 83.1697C81.9626 83.1697 81.2386 83.1352 81.0146 83.0834V82.9971C81.0146 81.5648 81.0318 79.9081 81.049 78.4757Z" fill="black"/>
<path d="M92.66 82.3758L90.6432 82.3931C90.6432 82.3931 90.626 80.0461 90.6777 78.631C90.6949 78.2168 90.9018 77.8717 91.3155 77.8717H94.0045C95.2973 77.8717 95.5559 78.7863 95.9351 79.9771C96.1419 80.0116 96.1764 79.9771 96.3488 79.8908C96.2626 79.1832 96.004 77.4747 95.9696 77.3367C95.9696 77.3022 95.9523 77.2849 95.9006 77.2849C95.6076 77.3367 95.4524 77.4057 95.0387 77.4057H90.0054C89.4883 77.4057 88.6264 77.3367 87.7646 77.3194C87.6612 77.423 87.6612 77.6128 87.7646 77.7163C88.9712 77.7681 89.1953 77.8544 89.247 79.2868C89.2815 80.7019 89.2815 81.5648 89.2815 82.9971C89.2815 84.4295 89.2815 85.2406 89.247 86.6557C89.1953 88.088 88.9712 88.1743 87.7646 88.2261C87.6612 88.3296 87.6612 88.5195 87.7646 88.623C88.6092 88.6058 89.5228 88.5367 90.0399 88.5367H93.8666C94.694 88.5367 96.073 88.623 96.073 88.623C96.3143 87.7601 96.5556 86.5694 96.6935 85.6893C96.5212 85.5857 96.5039 85.5512 96.2798 85.603C95.9351 86.8455 95.3145 88.088 94.0045 88.088H91.3155C90.9363 88.088 90.6949 87.8119 90.6777 87.346C90.626 85.8964 90.6432 82.8763 90.6432 82.8763L92.66 82.8936C94.1252 82.9108 94.1941 83.2732 94.2458 84.0498C94.3492 84.1534 94.5216 84.1534 94.625 84.0498C94.6078 83.4458 94.5561 83.2387 94.5561 82.7037C94.5561 82.1342 94.6078 81.7373 94.625 81.2196C94.5216 81.1161 94.3492 81.1161 94.2458 81.2196C94.1941 82.1688 94.1252 82.3758 92.66 82.3758Z" fill="black"/>
<path d="M52.5076 24.9385L34.5282 43.3582C28.4534 50.8898 38.6624 50.0135 43.0388 52.1829C44.6087 53.7894 37.0215 54.9752 38.5914 56.5831C40.1613 58.1897 48.0844 59.6783 49.6569 61.2849C51.2268 62.8914 46.4435 64.5958 48.0134 66.2023C49.5833 67.8089 53.2143 66.2867 53.8942 69.9956C54.3786 72.6459 60.4374 71.1345 63.4005 68.9639C64.9704 67.356 60.3972 67.5074 61.9671 65.9008C65.8711 61.9039 69.5061 64.4484 70.8417 60.4434C71.5015 58.4644 65.0948 57.3924 66.6674 55.7859C71.1844 53.1449 86.7962 51.4258 79.3885 44.0094L60.7519 24.9385C58.4727 22.7477 54.6691 22.7236 52.5076 24.9385ZM73.1598 60.4434C73.1598 61.3572 79.885 61.9562 79.885 60.2277C78.9267 57.4514 73.9547 57.639 73.1598 60.4434ZM42.8648 65.2992C44.4574 66.678 46.9173 64.9562 47.6548 63.0321C46.1116 60.9794 40.3353 63.1058 42.8648 65.2992ZM72.3166 62.3206C70.2636 64.1643 72.5468 66.0348 74.5704 64.8437C75.0214 64.3854 74.5583 62.7789 72.3166 62.3206Z" fill="black"/>
<path d="M48.2048 53.1797C48.6853 53.4785 55.9526 54.9564 57.7285 55.2512C58.3442 55.3812 57.9079 56.0163 57.0594 56.445C55.1455 56.9542 45.8627 53.1797 48.2048 53.1797Z" fill="white"/>
<path d="M59.6652 26.2302L66.7785 33.463C67.4531 34.1531 67.4437 35.4903 67.0663 35.8749L63.5344 33.0463L62.8398 37.2349L59.8887 35.6752L55.163 38.6646L53.5984 32.363L51.0596 36.7606H47.1784C45.5964 36.7606 45.4104 34.7507 46.8478 33.3116C49.3585 30.5983 52.24 27.8327 53.8059 26.2302C55.3798 24.6196 58.1221 24.6652 59.6652 26.2302Z" fill="white"/>
</svg>
