<svg width="84" height="88" viewBox="0 0 84 88" fill="none" xmlns="http://www.w3.org/2000/svg">
<rect x="2" y="2" width="80" height="84" rx="2" stroke="#1596BD" stroke-width="3"/>
<path d="M62.1645 40.1092L64.7262 37.5475C66.6112 35.6625 66.6112 32.5933 64.7262 30.7083L61.3187 27.3008C59.4337 25.4158 56.3645 25.4158 54.4795 27.3008L51.9178 29.8625L62.1645 40.1092ZM51.9178 43.5408L34.5179 60.9167H31.1104V57.5092L48.4862 40.1333L51.9178 43.5408ZM48.4862 33.27L26.277 55.5033V65.75H36.5237L58.7328 43.5408L48.4862 33.27ZM62.527 57.2917C62.527 62.5842 56.3887 65.75 50.4437 65.75C49.1145 65.75 48.027 64.6625 48.027 63.3333C48.027 62.0042 49.1145 60.9167 50.4437 60.9167C54.1653 60.9167 57.6937 59.1525 57.6937 57.2917C57.6937 56.1558 56.5337 55.1892 54.7212 54.3917L58.2978 50.815C60.8837 52.3375 62.527 54.3675 62.527 57.2917ZM27.6787 47.2625C25.3345 45.9092 23.8604 44.145 23.8604 41.5833C23.8604 37.2333 28.4279 35.2275 32.4637 33.4633C34.9529 32.3517 38.3604 30.8533 38.3604 29.5C38.3604 28.5092 36.4754 27.0833 33.527 27.0833C30.482 27.0833 29.177 28.5575 29.1045 28.63C28.2587 29.6208 26.7362 29.7417 25.7212 28.92C24.7304 28.0983 24.537 26.6242 25.3587 25.585C25.6245 25.2467 28.1137 22.25 33.527 22.25C38.9404 22.25 43.1937 25.44 43.1937 29.5C43.1937 34.0192 38.5295 36.0733 34.397 37.8858C32.1254 38.8767 28.6937 40.375 28.6937 41.5833C28.6937 42.3325 29.7329 43.0333 31.2795 43.6617L27.6787 47.2625Z" fill="#1596BD"/>
</svg>
