<svg width="84" height="88" viewBox="0 0 84 88" fill="none" xmlns="http://www.w3.org/2000/svg">
<rect x="2" y="2" width="80" height="84" rx="2" stroke="#DE6262" stroke-width="3"/>
<path d="M59.0935 46.115L51.8035 42.47C54.706 40.22 56.5735 36.71 56.5735 32.75C56.5735 25.9325 51.016 20.375 44.1985 20.375C37.381 20.375 31.8235 25.9325 31.8235 32.75C31.8235 37.5425 34.5685 41.705 38.5735 43.7525V51.0875C33.736 50.0525 34.0285 50.0975 33.4885 50.0975C32.296 50.0975 31.171 50.57 30.316 51.425L27.166 54.62L38.6185 66.0725C39.586 67.0625 40.936 67.625 42.331 67.625H56.506C58.711 67.625 60.5785 66.05 60.9385 63.8675L62.7385 53.27C63.2335 50.345 61.771 47.465 59.0935 46.115ZM58.306 52.5275L56.506 63.125H42.331C42.1285 63.125 41.9485 63.035 41.791 62.9L33.511 54.62L43.0735 56.6225V32.75C43.0735 32.12 43.5685 31.625 44.1985 31.625C44.8285 31.625 45.3235 32.12 45.3235 32.75V46.25H49.2835L57.0685 50.1425C57.9685 50.5925 58.4635 51.56 58.306 52.5275ZM36.3235 32.75C36.3235 28.4075 39.856 24.875 44.1985 24.875C48.541 24.875 52.0735 28.4075 52.0735 32.75C52.0735 34.8875 51.2185 36.8225 49.8235 38.24V32.75C49.8235 29.645 47.3035 27.125 44.1985 27.125C41.0935 27.125 38.5735 29.645 38.5735 32.75V38.24C37.1785 36.8225 36.3235 34.8875 36.3235 32.75Z" fill="#DE6262"/>
</svg>
