<svg width="84" height="88" viewBox="0 0 84 88" fill="none" xmlns="http://www.w3.org/2000/svg">
<rect x="2" y="2" width="80" height="84" rx="2" stroke="#FEB902" stroke-width="3"/>
<path d="M34.5 66.5C34.5 67.875 35.625 69 37 69H47C48.375 69 49.5 67.875 49.5 66.5V64H34.5V66.5ZM42 19C32.35 19 24.5 26.85 24.5 36.5C24.5 42.45 27.475 47.675 32 50.85V56.5C32 57.875 33.125 59 34.5 59H49.5C50.875 59 52 57.875 52 56.5V50.85C56.525 47.675 59.5 42.45 59.5 36.5C59.5 26.85 51.65 19 42 19ZM49.125 46.75L47 48.25V54H37V48.25L34.875 46.75C31.5 44.4 29.5 40.575 29.5 36.5C29.5 29.6 35.1 24 42 24C48.9 24 54.5 29.6 54.5 36.5C54.5 40.575 52.5 44.4 49.125 46.75Z" fill="#FFB901"/>
</svg>
