<svg width="19" height="19" viewBox="0 0 19 19" fill="none" xmlns="http://www.w3.org/2000/svg">
<path d="M18.3853 0.681919C18.6062 0.842634 18.6966 1.05692 18.6565 1.32478L16.085 16.7533C16.0515 16.9475 15.9444 17.0982 15.7636 17.2054C15.6699 17.2589 15.5661 17.2857 15.4522 17.2857C15.3786 17.2857 15.2982 17.269 15.2111 17.2355L10.6609 15.3772L8.23012 18.3404C8.10958 18.4944 7.94552 18.5714 7.73793 18.5714C7.65088 18.5714 7.57722 18.558 7.51695 18.5312C7.38972 18.4844 7.28592 18.404 7.20557 18.2902C7.13191 18.183 7.09508 18.0625 7.09508 17.9286V14.423L15.7736 3.78571L5.03592 13.077L1.06829 11.4498C0.820522 11.356 0.686593 11.1719 0.666504 10.8973C0.653111 10.6295 0.760254 10.4319 0.987932 10.3047L17.7022 0.66183C17.8027 0.601561 17.9098 0.571427 18.0236 0.571427C18.1576 0.571427 18.2781 0.608258 18.3853 0.681919Z" fill="white"/>
</svg>
